<svg xmlns="http://www.w3.org/2000/svg" width="85.774" height="74.87" viewBox="0 0 85.774 74.87"><g opacity="0.69" style="mix-blend-mode:luminosity;isolation:isolate"><g transform="translate(0 55.841)"><path d="M-407.572,527.946a6.136,6.136,0,0,0-5.982,6.5c0,3.782,2.666,6.453,5.982,6.453a4.809,4.809,0,0,0,3.957-1.837v.8a.844.844,0,0,0,.8.8h1.978V528.229h-2.779v1.578a4.815,4.815,0,0,0-3.957-1.861Zm.5,2.543a3.8,3.8,0,0,1,3.7,3.956,3.836,3.836,0,0,1-3.7,3.955,3.759,3.759,0,0,1-3.655-3.982A3.706,3.706,0,0,1-407.077,530.489Z" transform="translate(413.554 -521.871)"/><path d="M-364.079,540.656a.778.778,0,0,1-.8-.8V528.221h2.779v1.539a4.335,4.335,0,0,1,3.748-1.825,4.644,4.644,0,0,1,4.73,4.761v7.96h-1.931a.851.851,0,0,1-.848-.848v-6.5a2.636,2.636,0,0,0-2.589-2.824,3.36,3.36,0,0,0-3.111,3.578v6.594Z" transform="translate(380.659 -521.863)"/><path d="M-317.634,515.574a6.136,6.136,0,0,0-5.982,6.5c0,3.782,2.666,6.453,5.982,6.453a4.808,4.808,0,0,0,3.957-1.837v.8a.844.844,0,0,0,.8.8h1.978V509.639h-2.779v7.8a4.815,4.815,0,0,0-3.957-1.861Zm.495,2.543a3.8,3.8,0,0,1,3.7,3.956,3.836,3.836,0,0,1-3.7,3.955,3.759,3.759,0,0,1-3.655-3.982A3.706,3.706,0,0,1-317.139,518.117Z" transform="translate(352.773 -509.498)"/><path d="M-274.141,540.958a.778.778,0,0,1-.8-.8V528.523h2.779V530.6a3.425,3.425,0,0,1,3.344-2.214,5.8,5.8,0,0,1,.989.094v2.873a4,4,0,0,0-1.319-.236c-1.95,0-3.015,1.843-3.015,3.578v6.267Z" transform="translate(319.878 -522.165)"/><path d="M-202.657,541.253a.778.778,0,0,1-.8-.8V528.818h2.779v12.435Z" transform="translate(271.568 -522.46)"/><path d="M-182.219,515.574a6.136,6.136,0,0,0-5.982,6.5c0,3.782,2.666,6.453,5.982,6.453a4.808,4.808,0,0,0,3.957-1.837v.8a.844.844,0,0,0,.8.8h1.978V509.639h-2.779v7.8a4.815,4.815,0,0,0-3.957-1.861Zm.5,2.543a3.8,3.8,0,0,1,3.7,3.956,3.836,3.836,0,0,1-3.7,3.955,3.759,3.759,0,0,1-3.655-3.982A3.706,3.706,0,0,1-181.724,518.117Z" transform="translate(261.258 -509.498)"/><ellipse cx="1.838" cy="1.838" rx="1.838" ry="1.838" transform="translate(67.64)"/><path d="M-243.907,527.933a6.4,6.4,0,0,0-6.482,6.482,6.328,6.328,0,0,0,6.476,6.476,6.414,6.414,0,0,0,6.576-6.452A6.457,6.457,0,0,0-243.907,527.933Zm.01,2.6a3.753,3.753,0,0,1,3.729,3.895,3.809,3.809,0,0,1-3.723,3.917,3.779,3.779,0,0,1-3.719-3.88,3.746,3.746,0,0,1,3.713-3.932Z" transform="translate(303.285 -521.862)"/></g><path d="M130.9,276.4l7.11-12.317a1.445,1.445,0,0,0-.523-1.969,1.426,1.426,0,0,0-1.96.523l-7.2,12.476a44.95,44.95,0,0,0-36.672,0l-7.2-12.476a1.44,1.44,0,1,0-2.491,1.446l7.11,12.317A42.454,42.454,0,0,0,67.13,309.982h85.717A42.441,42.441,0,0,0,130.9,276.4ZM90.308,297.945a3.593,3.593,0,1,1,3.593-3.592A3.594,3.594,0,0,1,90.308,297.945Zm39.35,0a3.593,3.593,0,1,1,3.593-3.592A3.594,3.594,0,0,1,129.658,297.945Z" transform="translate(-67.078 -261.917)" fill="#32de84"/></g></svg>