<svg xmlns="http://www.w3.org/2000/svg" xmlns:xlink="http://www.w3.org/1999/xlink" width="1920" height="2056" viewBox="0 0 1920 2056">
  <defs>
    <filter id="Ellipse_18" x="45.5" y="1107.5" width="222" height="222" filterUnits="userSpaceOnUse">
      <feOffset dy="22" input="SourceAlpha"/>
      <feGaussianBlur stdDeviation="18.5" result="blur"/>
      <feFlood flood-opacity="0.161"/>
      <feComposite operator="in" in2="blur"/>
      <feComposite in="SourceGraphic"/>
    </filter>
    <filter id="Ellipse_17" x="26.5" y="993.5" width="149" height="149" filterUnits="userSpaceOnUse">
      <feOffset dy="22" input="SourceAlpha"/>
      <feGaussianBlur stdDeviation="18.5" result="blur-2"/>
      <feFlood flood-opacity="0.161"/>
      <feComposite operator="in" in2="blur-2"/>
      <feComposite in="SourceGraphic"/>
    </filter>
    <filter id="Ellipse_19" x="269.5" y="1105.5" width="152" height="151" filterUnits="userSpaceOnUse">
      <feOffset dy="22" input="SourceAlpha"/>
      <feGaussianBlur stdDeviation="18.5" result="blur-3"/>
      <feFlood flood-opacity="0.161"/>
      <feComposite operator="in" in2="blur-3"/>
      <feComposite in="SourceGraphic"/>
    </filter>
    <filter id="Ellipse_18-2" x="1573.359" y="162.717" width="160.708" height="160.708" filterUnits="userSpaceOnUse">
      <feOffset dy="22" input="SourceAlpha"/>
      <feGaussianBlur stdDeviation="18.5" result="blur-4"/>
      <feFlood flood-opacity="0.161"/>
      <feComposite operator="in" in2="blur-4"/>
      <feComposite in="SourceGraphic"/>
    </filter>
    <filter id="Ellipse_17-2" x="1604.471" y="241.807" width="128.018" height="128.017" filterUnits="userSpaceOnUse">
      <feOffset dy="22" input="SourceAlpha"/>
      <feGaussianBlur stdDeviation="18.5" result="blur-5"/>
      <feFlood flood-opacity="0.161"/>
      <feComposite operator="in" in2="blur-5"/>
      <feComposite in="SourceGraphic"/>
    </filter>
    <filter id="Ellipse_19-2" x="1511.839" y="184.292" width="129.312" height="128.962" filterUnits="userSpaceOnUse">
      <feOffset dy="22" input="SourceAlpha"/>
      <feGaussianBlur stdDeviation="18.5" result="blur-6"/>
      <feFlood flood-opacity="0.161"/>
      <feComposite operator="in" in2="blur-6"/>
      <feComposite in="SourceGraphic"/>
    </filter>
    <filter id="Ellipse_18-3" x="-12.64" y="1313.718" width="160.708" height="160.708" filterUnits="userSpaceOnUse">
      <feOffset dy="22" input="SourceAlpha"/>
      <feGaussianBlur stdDeviation="18.5" result="blur-7"/>
      <feFlood flood-opacity="0.161"/>
      <feComposite operator="in" in2="blur-7"/>
      <feComposite in="SourceGraphic"/>
    </filter>
    <filter id="Ellipse_17-3" x="18.471" y="1392.808" width="128.017" height="128.017" filterUnits="userSpaceOnUse">
      <feOffset dy="22" input="SourceAlpha"/>
      <feGaussianBlur stdDeviation="18.5" result="blur-8"/>
      <feFlood flood-opacity="0.161"/>
      <feComposite operator="in" in2="blur-8"/>
      <feComposite in="SourceGraphic"/>
    </filter>
    <filter id="Ellipse_19-3" x="-74.161" y="1335.292" width="129.312" height="128.962" filterUnits="userSpaceOnUse">
      <feOffset dy="22" input="SourceAlpha"/>
      <feGaussianBlur stdDeviation="18.5" result="blur-9"/>
      <feFlood flood-opacity="0.161"/>
      <feComposite operator="in" in2="blur-9"/>
      <feComposite in="SourceGraphic"/>
    </filter>
    <filter id="Ellipse_18-4" x="1784.594" y="319.801" width="234.7" height="234.7" filterUnits="userSpaceOnUse">
      <feOffset dy="22" input="SourceAlpha"/>
      <feGaussianBlur stdDeviation="18.5" result="blur-10"/>
      <feFlood flood-opacity="0.161"/>
      <feComposite operator="in" in2="blur-10"/>
      <feComposite in="SourceGraphic"/>
    </filter>
    <filter id="Ellipse_17-4" x="1862.015" y="516.619" width="153.348" height="153.348" filterUnits="userSpaceOnUse">
      <feOffset dy="22" input="SourceAlpha"/>
      <feGaussianBlur stdDeviation="18.5" result="blur-11"/>
      <feFlood flood-opacity="0.161"/>
      <feComposite operator="in" in2="blur-11"/>
      <feComposite in="SourceGraphic"/>
    </filter>
    <filter id="Ellipse_19-4" x="1631.498" y="373.489" width="156.569" height="155.698" filterUnits="userSpaceOnUse">
      <feOffset dy="22" input="SourceAlpha"/>
      <feGaussianBlur stdDeviation="18.5" result="blur-12"/>
      <feFlood flood-opacity="0.161"/>
      <feComposite operator="in" in2="blur-12"/>
      <feComposite in="SourceGraphic"/>
    </filter>
    <filter id="Rectangle_74" x="1535.234" y="699.405" width="1062.842" height="601.959" filterUnits="userSpaceOnUse">
      <feOffset dy="22" input="SourceAlpha"/>
      <feGaussianBlur stdDeviation="18.5" result="blur-13"/>
      <feFlood flood-opacity="0.161"/>
      <feComposite operator="in" in2="blur-13"/>
      <feComposite in="SourceGraphic"/>
    </filter>
    <filter id="Rectangle_75" x="1453.012" y="647.161" width="1060.212" height="596.566" filterUnits="userSpaceOnUse">
      <feOffset dy="22" input="SourceAlpha"/>
      <feGaussianBlur stdDeviation="18.5" result="blur-14"/>
      <feFlood flood-opacity="0.161"/>
      <feComposite operator="in" in2="blur-14"/>
      <feComposite in="SourceGraphic"/>
    </filter>
    <clipPath id="clip-domains_bg">
      <rect width="1920" height="2056"/>
    </clipPath>
  </defs>
  <g id="domains_bg" clip-path="url(#clip-domains_bg)">
    <rect width="1920" height="2056" fill="#fafafa"/>
    <g id="Group_51" data-name="Group 51" transform="translate(10 947)">
      <g transform="matrix(1, 0, 0, 1, -10, -947)" filter="url(#Ellipse_18)">
        <circle id="Ellipse_18-5" data-name="Ellipse 18" cx="55.5" cy="55.5" r="55.5" transform="translate(101 1141)" fill="#f7941e"/>
      </g>
      <g transform="matrix(1, 0, 0, 1, -10, -947)" filter="url(#Ellipse_17)">
        <circle id="Ellipse_17-5" data-name="Ellipse 17" cx="19" cy="19" r="19" transform="translate(82 1027)" fill="#f7941e"/>
      </g>
      <g transform="matrix(1, 0, 0, 1, -10, -947)" filter="url(#Ellipse_19)">
        <ellipse id="Ellipse_19-5" data-name="Ellipse 19" cx="20.5" cy="20" rx="20.5" ry="20" transform="translate(325 1139)" fill="#f7941e"/>
      </g>
    </g>
    <g id="Group_71" data-name="Group 71" transform="translate(1736.841 380.503) rotate(-173)">
      <g transform="matrix(-0.99, 0.12, -0.12, -0.99, 1770.27, 166)" filter="url(#Ellipse_18-2)">
        <circle id="Ellipse_18-6" data-name="Ellipse 18" cx="22.302" cy="22.302" r="22.302" transform="translate(1673.13 245.93) rotate(-173)" fill="#f7941e"/>
      </g>
      <g transform="matrix(-0.99, 0.12, -0.12, -0.99, 1770.27, 166)" filter="url(#Ellipse_17-2)">
        <circle id="Ellipse_17-6" data-name="Ellipse 17" cx="7.635" cy="7.635" r="7.635" transform="translate(1675.13 292.32) rotate(-173)" fill="#f7941e"/>
      </g>
      <g transform="matrix(-0.99, 0.12, -0.12, -0.99, 1770.27, 166)" filter="url(#Ellipse_19-2)">
        <ellipse id="Ellipse_19-6" data-name="Ellipse 19" cx="8.238" cy="8.037" rx="8.238" ry="8.037" transform="translate(1583.69 235.75) rotate(-173)" fill="#f7941e"/>
      </g>
    </g>
    <g id="Group_80" data-name="Group 80" transform="translate(150.841 1531.503) rotate(-173)">
      <g transform="matrix(-0.99, 0.12, -0.12, -0.99, 336.36, 1501.7)" filter="url(#Ellipse_18-3)">
        <circle id="Ellipse_18-7" data-name="Ellipse 18" cx="22.302" cy="22.302" r="22.302" transform="translate(87.13 1396.93) rotate(-173)" fill="#f7941e"/>
      </g>
      <g transform="matrix(-0.99, 0.12, -0.12, -0.99, 336.36, 1501.7)" filter="url(#Ellipse_17-3)">
        <circle id="Ellipse_17-7" data-name="Ellipse 17" cx="7.635" cy="7.635" r="7.635" transform="translate(89.13 1443.32) rotate(-173)" fill="#f7941e"/>
      </g>
      <g transform="matrix(-0.99, 0.12, -0.12, -0.99, 336.36, 1501.7)" filter="url(#Ellipse_19-3)">
        <ellipse id="Ellipse_19-7" data-name="Ellipse 19" cx="8.238" cy="8.037" rx="8.238" ry="8.037" transform="translate(-2.31 1386.75) rotate(-173)" fill="#f7941e"/>
      </g>
    </g>
    <g id="Group_72" data-name="Group 72" transform="translate(2016.945 680.645) rotate(-173)">
      <g transform="matrix(-0.99, 0.12, -0.12, -0.99, 2084.86, 429.77)" filter="url(#Ellipse_18-4)">
        <circle id="Ellipse_18-8" data-name="Ellipse 18" cx="55.5" cy="55.5" r="55.5" transform="translate(1950.27 477) rotate(-173)" fill="#f7941e"/>
      </g>
      <g transform="matrix(-0.99, 0.12, -0.12, -0.99, 2084.86, 429.77)" filter="url(#Ellipse_17-4)">
        <circle id="Ellipse_17-8" data-name="Ellipse 17" cx="19" cy="19" r="19" transform="translate(1955.23 592.47) rotate(-173)" fill="#f7941e"/>
      </g>
      <g transform="matrix(-0.99, 0.12, -0.12, -0.99, 2084.86, 429.77)" filter="url(#Ellipse_19-4)">
        <ellipse id="Ellipse_19-8" data-name="Ellipse 19" cx="20.5" cy="20" rx="20.5" ry="20" transform="translate(1727.69 451.69) rotate(-173)" fill="#f7941e"/>
      </g>
    </g>
    <g transform="matrix(1, 0, 0, 1, 0, 0)" filter="url(#Rectangle_74)">
      <rect id="Rectangle_74-2" data-name="Rectangle 74" width="1040" height="39" rx="19.5" transform="matrix(0.9, -0.44, 0.44, 0.9, 1590.73, 1188.81)" fill="#f7941e"/>
    </g>
    <g transform="matrix(1, 0, 0, 1, 0, 0)" filter="url(#Rectangle_75)">
      <rect id="Rectangle_75-2" data-name="Rectangle 75" width="1040" height="33" rx="16.5" transform="matrix(0.9, -0.44, 0.44, 0.9, 1508.51, 1136.57)" fill="#f7941e"/>
    </g>
  </g>
</svg>
