<svg xmlns="http://www.w3.org/2000/svg" xmlns:xlink="http://www.w3.org/1999/xlink" width="402.811" height="115.377" viewBox="0 0 402.811 115.377"><defs><clipPath id="a"><rect width="402.811" height="115.377" fill="#f3f3f3"/></clipPath></defs><g clip-path="url(#a)"><path d="M193.861,77.58c-.053-.628-.062-1.239-.168-1.823a10.716,10.716,0,0,0-1.858-4.009c-1.168-1.77-2.407-3.54-3.54-5.31a20.866,20.866,0,0,1-3.053-8.619,15.858,15.858,0,0,1,3.46-12.132,19.177,19.177,0,0,1,11.947-7.079,17.451,17.451,0,0,1,10.309,1.38,18.725,18.725,0,0,1,8.46,7.177,15.8,15.8,0,0,1,2.469,9.734,19.858,19.858,0,0,1-2.7,8.761c-1.177,1.991-2.513,3.885-3.779,5.832a12.654,12.654,0,0,0-1.938,3.858,12.883,12.883,0,0,0-.212,1.54,3.9,3.9,0,0,1-.044.708Zm17.592-1.814s.053-.062.053-.08l.08-.416a12.947,12.947,0,0,1,1.982-4.336c1.035-1.549,2.115-3.071,3.124-4.637a20,20,0,0,0,3.372-9.6,13.716,13.716,0,0,0-1.186-6.672,15.761,15.761,0,0,0-6.026-6.894,16.106,16.106,0,0,0-12.008-2.655,17.168,17.168,0,0,0-11.6,7.628,13.69,13.69,0,0,0-2.133,9.407,19.99,19.99,0,0,0,3.124,8.54c1.1,1.708,2.274,3.363,3.389,5.062a11.919,11.919,0,0,1,1.911,4.318c.053.336.177.389.487.389h15.46Z" transform="translate(-21.3 -4.414)" fill="#f3f3f3"/><path d="M204.723,86.173h-8.407a1.292,1.292,0,0,1-1.336-.885,1.195,1.195,0,0,1,1.106-1.619,4.421,4.421,0,0,1,.487,0h16.486a1.274,1.274,0,0,1,1.416,1.221,1.142,1.142,0,0,1-1.071,1.221h-1.221Z" transform="translate(-22.428 -9.627)" fill="#f3f3f3"/><path d="M204.724,92h8.557a1.248,1.248,0,0,1,1.035,1.9,1.177,1.177,0,0,1-1.035.54H196.237a1.257,1.257,0,0,1-1.327-1.327,1.177,1.177,0,0,1,1.018-1.106,3.851,3.851,0,0,1,.451,0h8.345Z" transform="translate(-22.428 -10.587)" fill="#f3f3f3"/><path d="M204.726,90.322H196.2a1.212,1.212,0,0,1-1.186-.8,1.186,1.186,0,0,1,1.088-1.646H213.15a1.248,1.248,0,0,1,1.31.991,1.159,1.159,0,0,1-1.106,1.469h-1.841Z" transform="translate(-22.43 -10.112)" fill="#f3f3f3"/><path d="M205.1,96.189h5.566a1.221,1.221,0,0,1,1.283.885.726.726,0,0,1-.38.965,12.789,12.789,0,0,1-1.239.425,6.406,6.406,0,0,0-1.088.407c-.637.345-1.23.752-1.841,1.124a4.159,4.159,0,0,1-4.628,0c-.478-.3-.965-.593-1.442-.885a3.54,3.54,0,0,0-1.655-.664,2.655,2.655,0,0,1-.885-.265c-.531-.248-.7-.54-.619-1a1.177,1.177,0,0,1,.982-.947,5.15,5.15,0,0,1,.522,0H205.1" transform="translate(-22.801 -11.068)" fill="#f3f3f3"/><path d="M188.927,76.049a.885.885,0,0,1,.805.584,1.186,1.186,0,0,1-.239,1.3c-.336.372-.708.726-1.071,1.088-.522.522-1.044,1.053-1.584,1.557a1.142,1.142,0,0,1-1.186.31,1.053,1.053,0,0,1-.611-1.522,2.079,2.079,0,0,1,.372-.5c.8-.805,1.593-1.593,2.389-2.389a1.389,1.389,0,0,1,1.124-.434" transform="translate(-21.278 -8.751)" fill="#f3f3f3"/><path d="M222.26,41.89a3.627,3.627,0,0,1,.478-.885c.814-.885,1.664-1.7,2.522-2.531a1.522,1.522,0,0,1,.513-.336,1.044,1.044,0,0,1,1.372,1.416,1.77,1.77,0,0,1-.372.54l-2.4,2.407a1.3,1.3,0,0,1-1.195.425,1.159,1.159,0,0,1-.885-1.071" transform="translate(-25.576 -4.377)" fill="#f3f3f3"/><path d="M231.392,62.432h-1.637a3.336,3.336,0,0,1-.416,0A1.177,1.177,0,0,1,228.33,61.4a1.115,1.115,0,0,1,.885-1.115,2.292,2.292,0,0,1,.487-.062H233a1.336,1.336,0,0,1,1.336.761,1.106,1.106,0,0,1-.991,1.434H231.4Z" transform="translate(-26.274 -6.929)" fill="#f3f3f3"/><path d="M179.747,62.422H177.8a1.159,1.159,0,0,1-1.071-.973,1.124,1.124,0,0,1,.805-1.159,1.557,1.557,0,0,1,.442-.08h3.54a1.875,1.875,0,0,1,.381.053,1.088,1.088,0,0,1-.177,2.159h-1.982Z" transform="translate(-20.336 -6.928)" fill="#f3f3f3"/><path d="M207.194,31.79V33.7a1.106,1.106,0,0,1-1.168,1.08,1.133,1.133,0,0,1-.991-.885,1.956,1.956,0,0,1-.035-.5q0-1.686,0-3.372a1.3,1.3,0,0,1,.575-1.159,1.071,1.071,0,0,1,1.611.991c.053.655,0,1.319,0,1.973Z" transform="translate(-23.589 -3.304)" fill="#f3f3f3"/><path d="M222.6,76a4.194,4.194,0,0,1,.885.469c.885.823,1.726,1.681,2.566,2.549a1.2,1.2,0,0,1,.319,1.23.964.964,0,0,1-.814.673,1.221,1.221,0,0,1-1.08-.363l-2.584-2.584a1.2,1.2,0,0,1-.354-1.018A1.133,1.133,0,0,1,222.6,76" transform="translate(-25.492 -8.745)" fill="#f3f3f3"/><path d="M189.144,41.938a1.018,1.018,0,0,1-1.442.973,1.849,1.849,0,0,1-.549-.363c-.823-.805-1.646-1.628-2.451-2.451a1.708,1.708,0,0,1-.372-.619,1.023,1.023,0,0,1,1.257-1.345,1.85,1.85,0,0,1,.655.372c.885.823,1.681,1.664,2.513,2.5a1.212,1.212,0,0,1,.389.885" transform="translate(-21.203 -4.382)" fill="#f3f3f3"/><path d="M208.05,77.617a7.345,7.345,0,0,1,1.389-4.5.913.913,0,1,1,1.46,1.1,5.539,5.539,0,0,0-1,3.54v.558a.909.909,0,0,1-1.814.124v-.814" transform="translate(-23.94 -8.371)" fill="#f3f3f3"/><path d="M203.443,77.525v.8a.921.921,0,1,1-1.832-.142,6.018,6.018,0,0,0-.8-3.743l-.248-.336a.918.918,0,0,1,1.478-1.088,6.637,6.637,0,0,1,1.336,3.274c.053.4.071.805.106,1.212h0" transform="translate(-23.059 -8.359)" fill="#f3f3f3"/><path d="M192.221,60.176l-.292.15a2.062,2.062,0,0,1,.062.221l-.389.088v.053a1.238,1.238,0,0,1,.257,0,.4.4,0,0,1,.089.124c.009.044,0,.1-.062.106h-.575a2,2,0,0,1,.053-.469c.186-.434.354-.522.7-.416.044,0,.071.053.15.124" transform="translate(-22.014 -6.904)" fill="#f3f3f3"/><path d="M216.94,66.38h.673c-.257.292-.451.274-.664.124a.582.582,0,0,0,0-.124" transform="translate(-24.964 -7.638)" fill="#f3f3f3"/><path d="M216.62,66.87h.522v.115h-.522Z" transform="translate(-24.927 -7.695)" fill="#f3f3f3"/><path d="M212.368,76.541l-17.362.292a25,25,0,0,0-2.655-6.69c-1.619-2.8-2.593-3.195-3.858-5.46a17.6,17.6,0,0,1,2.46-20.256,18.336,18.336,0,0,1,9.4-4.77c7.964-1.372,13.92,3.265,14.9,4.053.54.434,5.8,5.31,5.779,12.389A19.734,19.734,0,0,1,217.2,67.364a26,26,0,0,0-3.035,4.557,23.211,23.211,0,0,0-1.77,4.655" transform="translate(-21.445 -4.534)" fill="#f3f3f3"/><path d="M96.728,83.821H87.277v-17.7c0-3.584-1.522-5.38-4.549-5.38a5.035,5.035,0,0,0-3.991,1.77,6.584,6.584,0,0,0-1.5,4.425V83.821H67.72V56.99l9.044-5.31V56.6a10.265,10.265,0,0,1,3.956-3.318,12.106,12.106,0,0,1,5.372-1.212,10.2,10.2,0,0,1,7.832,3.009,11.4,11.4,0,0,1,2.805,8.132Z" transform="translate(-7.793 -5.947)" fill="#f3f3f3"/><path d="M129.59,74.451a9.646,9.646,0,0,1-2.894,7.079Q123.209,85.008,116.652,85a25.778,25.778,0,0,1-6.053-.664,21.681,21.681,0,0,1-5.7-2.363l2.186-7.327a18.747,18.747,0,0,0,2.425,1.646,11.185,11.185,0,0,0,5.372,1.7,5.513,5.513,0,0,0,3.54-1.044,3.133,3.133,0,0,0,1.327-2.557q0-1.7-6.964-3.911t-6.973-8.336a9.38,9.38,0,0,1,3.009-7.009q3.425-3.274,9.274-3.283a21.539,21.539,0,0,1,7.389,1.327,19.9,19.9,0,0,1,2.947,1.389l-2.062,6.628c-1.106-.628-1.973-1.1-2.6-1.389a12.053,12.053,0,0,0-4.841-1.389,3.708,3.708,0,0,0-2.655.885,2.832,2.832,0,0,0-.973,2.124c0,1.425,1.212,2.522,3.655,3.283a49.7,49.7,0,0,1,6.911,2.46,7.94,7.94,0,0,1,3.726,7.265" transform="translate(-12.071 -5.966)" fill="#f3f3f3"/><path d="M169.07,68.7q0,7.327-3.964,11.876a11.8,11.8,0,0,1-9.186,4.212,10.619,10.619,0,0,1-4.973-1.142,13.159,13.159,0,0,1-3.5-2.779v10.7L138,96.222V53.1h9.044v3.6a10.132,10.132,0,0,1,3.717-3.124,11.212,11.212,0,0,1,5.141-1.168,11.858,11.858,0,0,1,9.531,4.327q3.628,4.327,3.628,11.964m-9.823.257q0-4.115-1.832-6.195a6.194,6.194,0,0,0-4.9-2.08,4.239,4.239,0,0,0-3.69,2.142,11.354,11.354,0,0,0-1.389,6.133,10.7,10.7,0,0,0,1.416,6,4.637,4.637,0,0,0,4.08,2.08,5.549,5.549,0,0,0,4.549-2.239,9.168,9.168,0,0,0,1.77-5.841" transform="translate(-15.88 -6.03)" fill="#f3f3f3"/><path d="M261.409,52.768,258.922,62.3a4.876,4.876,0,0,0-.823-.31,6.442,6.442,0,0,0-1.894-.381,5.717,5.717,0,0,0-3.894,1.451q-2.239,2.018-2.248,6V83.821h-9.5V57.1L249.6,51.68V57.1a9.628,9.628,0,0,1,3.54-3.487,9.522,9.522,0,0,1,4.9-1.354,11.787,11.787,0,0,1,2.363.248,9.35,9.35,0,0,1,1.009.257" transform="translate(-27.682 -5.947)" fill="#f3f3f3"/><path d="M295.3,64.7,276.348,75.026a11.018,11.018,0,0,0,1.354,1.195,5.584,5.584,0,0,0,3.31,1.2,6.194,6.194,0,0,0,4.31-1.77,11.274,11.274,0,0,0,1.416-1.832l6.256,4.044Q288.268,85.008,280.065,85A14.548,14.548,0,0,1,269.2,80.513a16.591,16.591,0,0,1-4.549-12.088,16.061,16.061,0,0,1,4.487-11.575,14.371,14.371,0,0,1,10.752-4.69,14.743,14.743,0,0,1,9.655,3.4A17.565,17.565,0,0,1,295.3,64.7m-9.451-2.655a4.664,4.664,0,0,0-2.1-2.062,6.938,6.938,0,0,0-3.336-.805,6.726,6.726,0,0,0-5.195,2.46,7.725,7.725,0,0,0-2.186,5.186,4.347,4.347,0,0,0,.106.885c.071.336.15.673.221,1.009Z" transform="translate(-30.453 -6.002)" fill="#f3f3f3"/><path d="M311.4,44.491V56.4s-.531,2.531,2.487,3.062c0,0-9.336,1.327-11.77-5.522v-6.7s.885-4.425,9.283-2.752" transform="translate(-34.765 -5.076)" fill="#f3f3f3"/><path d="M326.867,87.438V75.518s.531-2.531-2.487-3.062c0,0,9.336-1.327,11.77,5.522v6.708s-.885,4.425-9.283,2.752" transform="translate(-37.327 -8.326)" fill="#f3f3f3"/><path d="M302.12,55.68v5.23s-.354,8.478,9.283,9.522h11.186s9.088-.4,11,5.522V69.149s-1.354-7.486-8.77-8.239H313.889s-8.584.956-11.77-5.23" transform="translate(-34.765 -6.407)" fill="#f3f3f3"/><path d="M302.12,55.68v5.23s-.354,8.478,9.283,9.522h11.186s9.088-.4,11,5.522V69.149s-1.354-7.486-8.77-8.239H313.889S305.306,61.866,302.12,55.68Z" transform="translate(-34.765 -6.407)" fill="#f3f3f3"/><path d="M302.12,55.59v5.23s-.354,8.478,9.283,9.522h11.186s9.088-.4,11,5.522V69.059s-1.354-7.486-8.77-8.239H313.889s-8.584.956-11.77-5.23" transform="translate(-34.765 -6.397)" fill="#f3f3f3"/><path d="M327.19,58.3s6.991-.575,9.283,5.841V44.516s-8.044-1.2-9.283,2.487Z" transform="translate(-37.65 -5.101)" fill="#f3f3f3"/><path d="M311.4,72.569s-6.991.575-9.283-5.849V86.348s8.044,1.2,9.283-2.478Z" transform="translate(-34.765 -7.678)" fill="#f3f3f3"/><path d="M405.593,70.019a17.31,17.31,0,0,1-2.973,10.345,9.867,9.867,0,0,1-8.389,4.425q-6.106,0-8.327-3.743V84H377.78V47.958l8.5-4.708V58.957a12.324,12.324,0,0,1,2.018-1.646,10.079,10.079,0,0,1,5.487-1.7,10.619,10.619,0,0,1,8.248,3.69q3.54,3.982,3.54,10.752m-8.761-.177a8.354,8.354,0,0,0-1.566-5.31,5.071,5.071,0,0,0-4.221-2.026,3.973,3.973,0,0,0-3.664,1.823,10.106,10.106,0,0,0-1.08,5.212q0,7.7,4.717,7.69a5.31,5.31,0,0,0,4.221-1.849c1.08-1.23,1.619-3.088,1.619-5.557" transform="translate(-43.472 -4.977)" fill="#f3f3f3"/><rect width="9.885" height="43.777" transform="translate(43.813 34.123)" fill="#f3f3f3"/><path d="M367.213,52.99V71.21c0,7.15-4.787,13.274-10.469,13.469-3.956.142-7.239-1.5-9.734-5.416a3.363,3.363,0,0,1-.54-1.336l.885.779c3.619,3.38,9.044,1.77,10.77-3.31a11.381,11.381,0,0,0,.558-3.354c.08-3.018,0-6.044.044-9.062.1-5.575,3.646-9.734,8.168-10.07a1.044,1.044,0,0,1,.292.08" transform="translate(-39.869 -6.088)" fill="#f3f3f3"/><path d="M344.728,53c4.159-.142,8.327,4.345,8.46,10.69.071,3.6,0,7.212,0,10.823,0,2.142.363,2.655,2.035,2.575a3.779,3.779,0,0,1-3.106,2.044c-3.885.469-7.486-4.062-7.478-9.389s0-10.539,0-15.8V53" transform="translate(-39.658 -6.098)" fill="#f3f3f3"/></g></svg>