<svg xmlns="http://www.w3.org/2000/svg" xmlns:xlink="http://www.w3.org/1999/xlink" width="314.816" height="90.173" viewBox="0 0 314.816 90.173"><defs><clipPath id="a"><rect width="314.816" height="90.173" fill="none"/></clipPath></defs><g transform="translate(49.51 28.71)"><g transform="translate(-49.51 -28.71)"><g clip-path="url(#a)"><path d="M191.949,69.012c-.041-.491-.048-.968-.131-1.425a8.376,8.376,0,0,0-1.452-3.133c-.913-1.383-1.881-2.766-2.766-4.15a16.308,16.308,0,0,1-2.386-6.736,12.394,12.394,0,0,1,2.7-9.482,14.987,14.987,0,0,1,9.337-5.533,13.639,13.639,0,0,1,8.057,1.079,14.634,14.634,0,0,1,6.612,5.609,12.345,12.345,0,0,1,1.93,7.608,15.52,15.52,0,0,1-2.109,6.847c-.92,1.556-1.964,3.036-2.953,4.558a9.89,9.89,0,0,0-1.515,3.015,10.071,10.071,0,0,0-.166,1.2,3.047,3.047,0,0,1-.035.553ZM205.7,67.594s.041-.048.041-.062l.062-.325a10.118,10.118,0,0,1,1.549-3.389c.809-1.21,1.653-2.4,2.441-3.624a15.63,15.63,0,0,0,2.635-7.5,10.72,10.72,0,0,0-.927-5.215,12.318,12.318,0,0,0-4.71-5.388,12.587,12.587,0,0,0-9.385-2.075,13.417,13.417,0,0,0-9.067,5.962,10.7,10.7,0,0,0-1.667,7.352A15.623,15.623,0,0,0,189.113,60c.858,1.335,1.777,2.628,2.649,3.956a9.316,9.316,0,0,1,1.494,3.375c.042.263.138.3.38.3h12.082Z" transform="translate(-57.084 -11.829)" fill="#f7941e"/><path d="M202.577,85.624h-6.57a1.01,1.01,0,0,1-1.044-.692.934.934,0,0,1,.865-1.266,3.457,3.457,0,0,1,.38,0h12.885a1,1,0,0,1,1.107.954.892.892,0,0,1-.837.954h-.954Z" transform="translate(-60.105 -25.8)" fill="#f7941e"/><path d="M202.579,92h6.688a.975.975,0,0,1,.809,1.487.92.92,0,0,1-.809.422h-13.32a.982.982,0,0,1-1.037-1.037.92.92,0,0,1,.8-.865,3.009,3.009,0,0,1,.353,0h6.522Z" transform="translate(-60.107 -28.372)" fill="#f7941e"/><path d="M202.585,89.788h-6.66a.948.948,0,0,1-.927-.622.927.927,0,0,1,.851-1.286h13.32a.975.975,0,0,1,1.024.775.906.906,0,0,1-.865,1.148h-1.439Z" transform="translate(-60.112 -27.1)" fill="#f7941e"/><path d="M203.579,96.188h4.35a.954.954,0,0,1,1,.692.567.567,0,0,1-.3.754,9.993,9.993,0,0,1-.968.332,5.007,5.007,0,0,0-.851.318c-.5.27-.961.588-1.439.878a3.251,3.251,0,0,1-3.617,0c-.373-.235-.754-.463-1.127-.692a2.766,2.766,0,0,0-1.293-.519,2.074,2.074,0,0,1-.692-.207c-.415-.194-.546-.422-.484-.782a.92.92,0,0,1,.768-.74,4.026,4.026,0,0,1,.408,0h4.24" transform="translate(-61.106 -29.662)" fill="#f7941e"/><path d="M188.049,76.048a.692.692,0,0,1,.629.456.927.927,0,0,1-.187,1.017c-.263.29-.553.567-.837.851-.408.408-.816.823-1.238,1.217a.892.892,0,0,1-.927.242.823.823,0,0,1-.477-1.19,1.625,1.625,0,0,1,.29-.387c.622-.629,1.245-1.245,1.867-1.867a1.086,1.086,0,0,1,.878-.339" transform="translate(-57.023 -23.451)" fill="#f7941e"/><path d="M222.26,41.049a2.837,2.837,0,0,1,.373-.692c.636-.692,1.3-1.328,1.971-1.978a1.189,1.189,0,0,1,.4-.263.816.816,0,0,1,1.072,1.107,1.383,1.383,0,0,1-.29.422l-1.874,1.881a1.017,1.017,0,0,1-.934.332.906.906,0,0,1-.692-.837" transform="translate(-68.542 -11.731)" fill="#f7941e"/><path d="M230.723,61.947h-1.28a2.608,2.608,0,0,1-.325,0,.92.92,0,0,1-.788-.809.871.871,0,0,1,.692-.871,1.792,1.792,0,0,1,.38-.048h2.58a1.044,1.044,0,0,1,1.044.595.865.865,0,0,1-.775,1.12H230.73Z" transform="translate(-70.414 -18.569)" fill="#f7941e"/><path d="M179.087,61.939h-1.522a.906.906,0,0,1-.837-.761.878.878,0,0,1,.629-.906,1.217,1.217,0,0,1,.346-.062h2.766a1.467,1.467,0,0,1,.3.041.851.851,0,0,1-.138,1.688H179.08Z" transform="translate(-54.5 -18.568)" fill="#f7941e"/><path d="M206.714,31.118v1.494a.864.864,0,0,1-.913.844.885.885,0,0,1-.775-.692A1.528,1.528,0,0,1,205,32.37q0-1.318,0-2.635a1.017,1.017,0,0,1,.45-.906.837.837,0,0,1,1.259.775c.042.512,0,1.031,0,1.542Z" transform="translate(-63.218 -8.855)" fill="#f7941e"/><path d="M222.366,76a3.279,3.279,0,0,1,.692.367c.692.643,1.349,1.314,2.006,1.992a.934.934,0,0,1,.249.961.754.754,0,0,1-.636.526.954.954,0,0,1-.844-.284l-2.02-2.02a.941.941,0,0,1-.277-.8.885.885,0,0,1,.83-.747" transform="translate(-68.316 -23.437)" fill="#f7941e"/><path d="M188.076,41.1a.8.8,0,0,1-1.127.761,1.445,1.445,0,0,1-.429-.284c-.643-.629-1.286-1.273-1.916-1.916a1.335,1.335,0,0,1-.29-.484.8.8,0,0,1,.982-1.051,1.445,1.445,0,0,1,.512.29c.692.643,1.314,1.3,1.964,1.957a.947.947,0,0,1,.3.692" transform="translate(-56.822 -11.743)" fill="#f7941e"/><path d="M208.049,76.553a5.74,5.74,0,0,1,1.086-3.52.714.714,0,1,1,1.141.858,4.329,4.329,0,0,0-.782,2.766v.436a.711.711,0,0,1-1.418.1v-.636" transform="translate(-64.159 -22.434)" fill="#f7941e"/><path d="M202.775,76.457v.622a.72.72,0,1,1-1.432-.111,4.7,4.7,0,0,0-.622-2.926l-.194-.263a.717.717,0,1,1,1.155-.851,5.187,5.187,0,0,1,1.044,2.559c.042.311.055.629.083.948h0" transform="translate(-61.797 -22.401)" fill="#f7941e"/><path d="M192.022,60.136l-.228.118a1.623,1.623,0,0,1,.048.173l-.3.069v.042a.968.968,0,0,1,.2,0,.316.316,0,0,1,.069.1c.007.035,0,.076-.048.083h-.45a1.562,1.562,0,0,1,.041-.367c.145-.339.277-.408.546-.325.035,0,.055.042.118.1" transform="translate(-58.997 -18.501)" fill="#f7941e"/><path d="M216.94,66.38h.526c-.2.228-.353.214-.519.1a.454.454,0,0,0,0-.1" transform="translate(-66.901 -20.471)" fill="#f7941e"/><path d="M216.62,66.87h.408v.09h-.408Z" transform="translate(-66.803 -20.622)" fill="#f7941e"/><path d="M206.686,68.429l-13.569.228a19.54,19.54,0,0,0-2.075-5.229c-1.266-2.185-2.026-2.5-3.015-4.267a13.756,13.756,0,0,1,1.923-15.831,14.33,14.33,0,0,1,7.345-3.728,15.124,15.124,0,0,1,11.647,3.168c.422.339,4.53,4.15,4.516,9.683a15.423,15.423,0,0,1-2.995,8.8,20.319,20.319,0,0,0-2.372,3.562,18.14,18.14,0,0,0-1.383,3.638" transform="translate(-57.471 -12.152)" fill="#f7941e"/><path d="M90.391,76.8H83V62.967c0-2.8-1.19-4.205-3.555-4.205a3.935,3.935,0,0,0-3.119,1.383A5.146,5.146,0,0,0,75.155,63.6V76.8H67.72V55.83l7.068-4.15v3.845a8.023,8.023,0,0,1,3.092-2.594,9.461,9.461,0,0,1,4.2-.948A7.971,7.971,0,0,1,88.2,54.336a8.908,8.908,0,0,1,2.192,6.356Z" transform="translate(-20.884 -15.937)" fill="#2e3092"/><path d="M124.2,69.514a7.539,7.539,0,0,1-2.262,5.533q-2.725,2.718-7.85,2.711a20.147,20.147,0,0,1-4.731-.519,16.944,16.944,0,0,1-4.454-1.847l1.708-5.727a14.649,14.649,0,0,0,1.9,1.286,8.742,8.742,0,0,0,4.2,1.328,4.309,4.309,0,0,0,2.766-.816,2.448,2.448,0,0,0,1.037-2q0-1.328-5.443-3.057t-5.45-6.515a7.331,7.331,0,0,1,2.351-5.478,10.076,10.076,0,0,1,7.248-2.566,16.834,16.834,0,0,1,5.775,1.037,15.556,15.556,0,0,1,2.3,1.086l-1.611,5.18c-.865-.491-1.542-.858-2.033-1.086a9.42,9.42,0,0,0-3.783-1.086,2.9,2.9,0,0,0-2.075.692,2.213,2.213,0,0,0-.761,1.66c0,1.113.948,1.971,2.856,2.566a38.841,38.841,0,0,1,5.4,1.923A6.205,6.205,0,0,1,124.2,69.5" transform="translate(-32.35 -15.99)" fill="#2e3092"/><path d="M162.283,65.141a13.616,13.616,0,0,1-3.1,9.281,9.226,9.226,0,0,1-7.179,3.292,8.3,8.3,0,0,1-3.887-.892,10.284,10.284,0,0,1-2.732-2.172v8.362L138,86.65v-33.7h7.068v2.815a7.919,7.919,0,0,1,2.9-2.441,8.763,8.763,0,0,1,4.018-.913,9.268,9.268,0,0,1,7.449,3.382q2.836,3.382,2.836,9.351m-7.677.2a7.134,7.134,0,0,0-1.432-4.841,4.841,4.841,0,0,0-3.832-1.625,3.313,3.313,0,0,0-2.884,1.674,8.873,8.873,0,0,0-1.086,4.793,8.362,8.362,0,0,0,1.107,4.689,3.624,3.624,0,0,0,3.188,1.625,4.336,4.336,0,0,0,3.555-1.75,7.165,7.165,0,0,0,1.383-4.565" transform="translate(-42.557 -16.161)" fill="#2e3092"/><path d="M256.854,52.531l-1.943,7.449a3.811,3.811,0,0,0-.643-.242,5.035,5.035,0,0,0-1.48-.3,4.468,4.468,0,0,0-3.043,1.134,6.011,6.011,0,0,0-1.757,4.689V76.8H240.56V55.92l7.061-4.24v4.24a7.525,7.525,0,0,1,2.766-2.725,7.442,7.442,0,0,1,3.832-1.058,9.213,9.213,0,0,1,1.847.194,7.313,7.313,0,0,1,.788.2" transform="translate(-74.185 -15.937)" fill="#2e3092"/><path d="M288.605,61.96l-14.814,8.071a8.616,8.616,0,0,0,1.058.934,4.364,4.364,0,0,0,2.587.941,4.841,4.841,0,0,0,3.368-1.383,8.814,8.814,0,0,0,1.107-1.432l4.89,3.161a11.5,11.5,0,0,1-10.1,5.574,11.37,11.37,0,0,1-8.493-3.506,12.966,12.966,0,0,1-3.555-9.447,12.553,12.553,0,0,1,3.507-9.046,11.232,11.232,0,0,1,8.4-3.666,11.522,11.522,0,0,1,7.546,2.656,13.728,13.728,0,0,1,4.5,7.144m-7.386-2.075a3.645,3.645,0,0,0-1.639-1.611,5.422,5.422,0,0,0-2.607-.629,5.256,5.256,0,0,0-4.06,1.923,6.038,6.038,0,0,0-1.708,4.053,3.4,3.4,0,0,0,.083.692c.055.263.118.526.173.788Z" transform="translate(-81.612 -16.085)" fill="#2e3092"/><path d="M309.375,44.408v9.309a2.038,2.038,0,0,0,1.943,2.393s-7.3,1.037-9.2-4.316V46.559s.692-3.458,7.255-2.151" transform="translate(-93.17 -13.604)" fill="#0f9346"/><path d="M326.323,84.143V74.827a2.038,2.038,0,0,0-1.943-2.393s7.3-1.037,9.2,4.316v5.242s-.692,3.458-7.255,2.151" transform="translate(-100.034 -22.313)" fill="#0f9346"/><path d="M302.119,55.68v4.087s-.277,6.626,7.255,7.442h8.742s7.1-.311,8.6,4.316V66.206s-1.058-5.851-6.854-6.439h-8.541s-6.709.747-9.2-4.087" transform="translate(-93.169 -17.171)" fill="#0f9346"/><path d="M302.119,55.68v4.087s-.277,6.626,7.255,7.442h8.742s7.1-.311,8.6,4.316V66.206s-1.058-5.851-6.854-6.439h-8.541S304.609,60.514,302.119,55.68Z" transform="translate(-93.169 -17.171)" fill="none" stroke="#fff" stroke-miterlimit="10" stroke-width="3"/><path d="M302.119,55.59v4.087s-.277,6.626,7.255,7.442h8.742s7.1-.311,8.6,4.316V66.116s-1.058-5.851-6.854-6.439h-8.541s-6.709.747-9.2-4.087" transform="translate(-93.169 -17.143)" fill="#939598"/><path d="M327.19,55.25s5.464-.45,7.255,4.565V44.475s-6.287-.941-7.255,1.943Z" transform="translate(-100.901 -13.67)" fill="#0f9346"/><path d="M309.375,71.292s-5.464.45-7.255-4.572V82.06s6.287.941,7.255-1.937Z" transform="translate(-93.17 -20.576)" fill="#0f9346"/><path d="M399.517,64.171a13.528,13.528,0,0,1-2.324,8.085,7.711,7.711,0,0,1-6.556,3.458q-4.772,0-6.508-2.926V75.1H377.78V46.929l6.639-3.679V55.526A9.634,9.634,0,0,1,386,54.24a7.878,7.878,0,0,1,4.288-1.328A8.3,8.3,0,0,1,396.73,55.8a12.189,12.189,0,0,1,2.766,8.4m-6.847-.138a6.529,6.529,0,0,0-1.224-4.15,3.963,3.963,0,0,0-3.3-1.584,3.106,3.106,0,0,0-2.863,1.425,7.9,7.9,0,0,0-.844,4.074q0,6.017,3.686,6.01a4.15,4.15,0,0,0,3.3-1.445,6.436,6.436,0,0,0,1.266-4.343" transform="translate(-116.502 -13.338)" fill="#ed2024"/><rect width="7.725" height="34.214" transform="translate(34.242 26.669)" fill="#2e3092"/><path d="M362.681,52.972v14.24c0,5.588-3.742,10.374-8.182,10.526a8.212,8.212,0,0,1-7.608-4.233,2.629,2.629,0,0,1-.422-1.044l.692.609c2.829,2.642,7.068,1.383,8.417-2.587a8.894,8.894,0,0,0,.436-2.621c.062-2.358,0-4.724.035-7.082.076-4.357,2.849-7.608,6.384-7.871a.816.816,0,0,1,.228.062" transform="translate(-106.847 -16.317)" fill="#f7941e"/><path d="M344.709,53c3.251-.111,6.508,3.4,6.612,8.355.055,2.815,0,5.637,0,8.458,0,1.674.284,2.075,1.591,2.013a2.953,2.953,0,0,1-2.428,1.6c-3.036.367-5.851-3.175-5.844-7.338s0-8.237,0-12.352V53" transform="translate(-106.282 -16.343)" fill="#f7941e"/></g></g></g></svg>