<svg xmlns="http://www.w3.org/2000/svg" width="17.928" height="23.372" viewBox="0 0 17.928 23.372"><g transform="translate(0)"><path d="M60.54,19.08,59,16.382a8.326,8.326,0,0,1-1.087-4.123V9.9a6.571,6.571,0,0,0-4.482-6.32V1.885a1.8,1.8,0,1,0-3.586,0V3.577A6.571,6.571,0,0,0,45.364,9.9v2.363a8.331,8.331,0,0,1-1.086,4.122l-1.539,2.7a.492.492,0,0,0-.005.475.444.444,0,0,0,.389.239H60.155a.446.446,0,0,0,.39-.238A.494.494,0,0,0,60.54,19.08Z" transform="translate(-42.675)" fill="#999"/></g><g transform="translate(5.208 20.986)"><path d="M188.815,469.333a4.15,4.15,0,0,0,7.513,0Z" transform="translate(-188.815 -469.333)" fill="#999"/></g></svg>