<svg xmlns="http://www.w3.org/2000/svg" width="104.247" height="104.945" viewBox="0 0 104.247 104.945">
  <g id="aps" transform="translate(-1283.771 -668.555)">
    <g id="_033-maintenance" data-name="033-maintenance" transform="translate(1283.771 668.555)">
      <path id="Path_267" data-name="Path 267" d="M90.563,39.642v72.548a1.652,1.652,0,0,1-1.652,1.652H1.652A1.652,1.652,0,0,1,0,112.191V39.64a3.614,3.614,0,0,1,3.614-3.614H86.948A3.616,3.616,0,0,1,90.563,39.642Z" transform="translate(0 -36.026)" fill="#dcf9f7"/>
      <g id="Group_44" data-name="Group 44" transform="translate(0 0)">
        <path id="Path_268" data-name="Path 268" d="M93.985,200.115l-2.744-11.467H85.753l-2.744,11.467,2.744,6.528v32.827H91.22V206.643h.021Z" transform="translate(-68.326 -161.652)" fill="#b0d1cf"/>
        <path id="Path_269" data-name="Path 269" d="M247.9,251a18.435,18.435,0,0,1-11.509,17.085v9.567H222.554v-9.567a18.434,18.434,0,0,1-2.61-32.863,1.273,1.273,0,0,1,1.939,1.081v12.048H237.06V236.3A1.273,1.273,0,0,1,239,235.219,18.419,18.419,0,0,1,247.9,251Z" transform="translate(-173.714 -199.831)" fill="#b0d1cf"/>
        <path id="Path_270" data-name="Path 270" d="M90.563,39.642V52.568H0V39.642a3.616,3.616,0,0,1,3.614-3.616H86.948A3.616,3.616,0,0,1,90.563,39.642Z" transform="translate(0 -36.026)" fill="#b0d1cf"/>
      </g>
      <path id="Path_271" data-name="Path 271" d="M90.564,49.679H0V39.644a3.615,3.615,0,0,1,3.615-3.615H86.95a3.615,3.615,0,0,1,3.615,3.615Z" transform="translate(-0.002 -36.028)" fill="#2e3092"/>
      <path id="Path_272" data-name="Path 272" d="M111.063,71.049H62.314a1.367,1.367,0,0,1,0-2.733h48.749a1.367,1.367,0,1,1,0,2.733Z" transform="translate(-50.167 -62.605)" fill="#dcf9f7"/>
      <path id="Path_273" data-name="Path 273" d="M375.285,69.189a1.366,1.366,0,0,1-1.367-1.367v-.237a1.367,1.367,0,0,1,2.733,0v.237A1.367,1.367,0,0,1,375.285,69.189Z" transform="translate(-307.779 -60.878)" fill="#65c98f"/>
      <path id="Path_274" data-name="Path 274" d="M406.126,69.189a1.366,1.366,0,0,1-1.367-1.367v-.237a1.367,1.367,0,1,1,2.733,0v.237A1.366,1.366,0,0,1,406.126,69.189Z" transform="translate(-333.165 -60.878)" fill="#f96982"/>
      <path id="Path_275" data-name="Path 275" d="M436.968,69.189a1.366,1.366,0,0,1-1.367-1.367v-.237a1.367,1.367,0,0,1,2.733,0v.237A1.366,1.366,0,0,1,436.968,69.189Z" transform="translate(-358.552 -60.878)" fill="#f9b767"/>
      <g id="Group_45" data-name="Group 45" transform="translate(30.306 27.208)">
        <path id="Path_276" data-name="Path 276" d="M177.335,192.162h-.949v-.949a1.367,1.367,0,1,0-2.733,0v.949H172.7a1.367,1.367,0,0,0,0,2.733h.949v.949a1.367,1.367,0,0,0,2.733,0V194.9h.949a1.367,1.367,0,0,0,0-2.733Z" transform="translate(-171.338 -189.847)" fill="#65c98f"/>
        <path id="Path_277" data-name="Path 277" d="M402.534,192.844h-.948V191.9a1.367,1.367,0,1,0-2.733,0v.949H397.9a1.367,1.367,0,1,0,0,2.733h.949v.949a1.367,1.367,0,1,0,2.733,0v-.949h.948a1.367,1.367,0,1,0,0-2.733Z" transform="translate(-356.704 -190.408)" fill="#65c98f"/>
      </g>
      <path id="Path_278" data-name="Path 278" d="M310.242,385.489v14.88h-2.733v-14.88a1.367,1.367,0,0,1,2.733,0Z" transform="translate(-253.117 -322.551)" fill="#88a5a0"/>
    </g>
    <g id="_042-mobile-web" data-name="042-mobile-web" transform="translate(1342.923 696.764)">
      <path id="Path_98" data-name="Path 98" d="M150.652,4.213v68.31a4.213,4.213,0,0,1-4.213,4.213H109.77a4.212,4.212,0,0,1-4.213-4.213V4.213A4.212,4.212,0,0,1,109.77,0h36.669A4.213,4.213,0,0,1,150.652,4.213Z" transform="translate(-105.557)" fill="#72f2eb"/>
      <path id="Path_99" data-name="Path 99" d="M150.652,4.213v8.1h-45.1v-8.1A4.212,4.212,0,0,1,109.77,0h36.669A4.213,4.213,0,0,1,150.652,4.213Z" transform="translate(-105.557)" fill="#65c98f"/>
      <path id="Path_100" data-name="Path 100" d="M150.652,4.213v5.9h-45.1v-5.9A4.212,4.212,0,0,1,109.77,0h36.669A4.213,4.213,0,0,1,150.652,4.213Z" transform="translate(-105.557)" fill="#b0d1cf"/>
      <path id="Path_101" data-name="Path 101" d="M150.652,428.988v8.228a4.213,4.213,0,0,1-4.213,4.213H109.77a4.212,4.212,0,0,1-4.213-4.213v-8.228Z" transform="translate(-105.557 -364.694)" fill="#65c98f"/>
      <path id="Path_102" data-name="Path 102" d="M150.652,443.618v6.036a4.213,4.213,0,0,1-4.213,4.213H109.77a4.212,4.212,0,0,1-4.213-4.213v-6.036Z" transform="translate(-105.557 -377.131)" fill="#b0d1cf"/>
      <g id="Group_18" data-name="Group 18" transform="translate(11.332 3.783)">
        <path id="Path_103" data-name="Path 103" d="M194.05,28.337H182.326a1.158,1.158,0,0,1,0-2.316H194.05a1.158,1.158,0,0,1,0,2.316Z" transform="translate(-181.168 -25.904)" fill="#88a5a0"/>
        <path id="Path_104" data-name="Path 104" d="M316.538,27.79a1.158,1.158,0,0,1-1.158-1.158V26.4a1.158,1.158,0,0,1,2.316,0v.234A1.158,1.158,0,0,1,316.538,27.79Z" transform="translate(-295.265 -25.24)" fill="#88a5a0"/>
        <path id="Path_105" data-name="Path 105" d="M295.047,27.79a1.158,1.158,0,0,1-1.158-1.158V26.4a1.158,1.158,0,0,1,2.316,0v.234A1.158,1.158,0,0,1,295.047,27.79Z" transform="translate(-276.995 -25.24)" fill="#88a5a0"/>
        <path id="Path_106" data-name="Path 106" d="M233.935,472.4H227.3a1.158,1.158,0,1,1,0-2.316h6.633a1.158,1.158,0,1,1,0,2.316Z" transform="translate(-219.403 -403.413)" fill="#88a5a0"/>
      </g>
      <path id="Path_107" data-name="Path 107" d="M158.9,179.294H144.189v-45.34a1.259,1.259,0,0,1,1.259-1.259h12.187a1.259,1.259,0,0,1,1.259,1.259v45.34Z" transform="translate(-138.399 -112.807)" fill="#f9b767"/>
      <rect id="Rectangle_63" data-name="Rectangle 63" width="14.706" height="2.193" transform="translate(5.79 64.294)" fill="#ef9d45"/>
      <g id="Group_19" data-name="Group 19" transform="translate(25.776 19.84)">
        <path id="Path_108" data-name="Path 108" d="M290.143,146.235H278.8a1.259,1.259,0,0,1-1.259-1.259V133.635a1.259,1.259,0,0,1,1.259-1.259h11.341a1.259,1.259,0,0,1,1.259,1.259v11.341A1.259,1.259,0,0,1,290.143,146.235Z" transform="translate(-277.543 -132.376)" fill="#2e3092"/>
        <path id="Path_109" data-name="Path 109" d="M290.15,261.993H278.8a1.252,1.252,0,0,1-1.252-1.252v-3.013a1.252,1.252,0,0,1,1.252-1.252H290.15a1.252,1.252,0,0,1,1.252,1.252v3.013A1.252,1.252,0,0,1,290.15,261.993Z" transform="translate(-277.543 -237.877)" fill="#2e3092"/>
      </g>
      <g id="Group_20" data-name="Group 20" transform="translate(24.618 47.723)">
        <path id="Path_110" data-name="Path 110" d="M284.835,320.737h-13.86a1.158,1.158,0,0,1,0-2.316h13.86a1.158,1.158,0,1,1,0,2.316Z" transform="translate(-269.817 -318.421)" fill="#65c98f"/>
        <path id="Path_111" data-name="Path 111" d="M284.835,348.906h-13.86a1.158,1.158,0,0,1,0-2.316h13.86a1.158,1.158,0,1,1,0,2.316Z" transform="translate(-269.817 -342.368)" fill="#65c98f"/>
        <path id="Path_112" data-name="Path 112" d="M284.835,377.075h-13.86a1.158,1.158,0,1,1,0-2.316h13.86a1.158,1.158,0,1,1,0,2.316Z" transform="translate(-269.817 -366.315)" fill="#65c98f"/>
        <path id="Path_113" data-name="Path 113" d="M284.835,405.245h-13.86a1.158,1.158,0,0,1,0-2.316h13.86a1.158,1.158,0,1,1,0,2.316Z" transform="translate(-269.817 -390.263)" fill="#65c98f"/>
      </g>
      <path id="Path_114" data-name="Path 114" d="M304.692,157.978l-2.759-5.809a1.158,1.158,0,0,0-2.092,0l-2.759,5.809a1.158,1.158,0,1,0,2.092.994l.248-.522h2.93l.248.522a1.158,1.158,0,0,0,2.092-.994Zm-4.17-1.844.365-.769.365.769Z" transform="translate(-268.282 -128.801)" fill="#dcf9f7"/>
    </g>
  </g>
</svg>
