<svg id="_010-chat" data-name="010-chat" xmlns="http://www.w3.org/2000/svg" width="117.256" height="112.514" viewBox="0 0 117.256 112.514">
  <path id="Path_237" data-name="Path 237" d="M104,292.2H40.7a1.832,1.832,0,0,0-1.832,1.832v32.052a1.832,1.832,0,0,0,1.832,1.832h5.534l11.715,11.715a1.832,1.832,0,0,0,2.591,0l11.715-11.715H104a1.832,1.832,0,0,0,1.832-1.832V294.027A1.832,1.832,0,0,0,104,292.2Z" transform="translate(-29.966 -227.649)" fill="#dcf9f7"/>
  <path id="Path_238" data-name="Path 238" d="M136.529,48.8H40.7a1.832,1.832,0,0,0-1.832,1.832V95.563A1.832,1.832,0,0,0,40.7,97.395h68.962l8.463,8.463a1.832,1.832,0,0,0,2.591,0l8.463-8.463h7.352a1.832,1.832,0,0,0,1.832-1.832V50.628A1.832,1.832,0,0,0,136.529,48.8Z" transform="translate(-29.966 -39.992)" fill="#f7941e"/>
  <g id="Group_39" data-name="Group 39" transform="translate(0 0)">
    <path id="Path_239" data-name="Path 239" d="M459.149,28.711a1.718,1.718,0,0,1-1.718-1.718V13.787H447.4a1.718,1.718,0,0,1,0-3.435h11.754a1.718,1.718,0,0,1,1.718,1.718V26.994A1.718,1.718,0,0,1,459.149,28.711Z" transform="translate(-343.611 -10.352)" fill="#b0d1cf"/>
    <path id="Path_240" data-name="Path 240" d="M8.9,427.507H1.718A1.718,1.718,0,0,1,0,425.79V410.866a1.718,1.718,0,1,1,3.435,0v13.206H8.9a1.718,1.718,0,0,1,0,3.435Z" transform="translate(0 -317.818)" fill="#b0d1cf"/>
  </g>
  <g id="Group_40" data-name="Group 40" transform="translate(18.939 22.086)">
    <path id="Path_241" data-name="Path 241" d="M84.416,112.729A1.717,1.717,0,0,1,83.2,109.8l2.5-2.5a1.717,1.717,0,1,1,2.429,2.429l-2.5,2.5A1.712,1.712,0,0,1,84.416,112.729Z" transform="translate(-82.698 -106.793)" fill="#2e3092"/>
    <path id="Path_242" data-name="Path 242" d="M112.222,112.729a1.717,1.717,0,0,1-1.214-2.932l2.5-2.5a1.717,1.717,0,1,1,2.429,2.429l-2.5,2.5A1.712,1.712,0,0,1,112.222,112.729Z" transform="translate(-104.136 -106.793)" fill="#2e3092"/>
    <path id="Path_243" data-name="Path 243" d="M158.4,186.716a1.718,1.718,0,0,1-1.215-2.932l2.5-2.5a1.718,1.718,0,0,1,2.429,2.429l-2.5,2.5A1.714,1.714,0,0,1,158.4,186.716Z" transform="translate(-139.74 -163.836)" fill="#2e3092"/>
    <path id="Path_244" data-name="Path 244" d="M186.207,186.716a1.718,1.718,0,0,1-1.215-2.932l2.5-2.5a1.718,1.718,0,0,1,2.429,2.429l-2.5,2.5A1.713,1.713,0,0,1,186.207,186.716Z" transform="translate(-161.178 -163.836)" fill="#2e3092"/>
  </g>
  <path id="Path_245" data-name="Path 245" d="M128.236,143.868a5.441,5.441,0,1,1,5.441-5.441A5.447,5.447,0,0,1,128.236,143.868Zm0-7.447a2.006,2.006,0,1,0,2.006,2.006A2.008,2.008,0,0,0,128.236,136.421Z" transform="translate(-94.673 -104.901)" fill="#dcf9f7"/>
  <path id="Path_246" data-name="Path 246" d="M261.432,120.119h-6.14a1.718,1.718,0,1,1,0-3.435h6.14a1.718,1.718,0,1,1,0,3.435Z" transform="translate(-195.502 -92.332)" fill="#2e3092"/>
  <g id="Group_41" data-name="Group 41" transform="translate(58.073 33.089)">
    <path id="Path_247" data-name="Path 247" d="M276.564,158.269H255.293a1.718,1.718,0,1,1,0-3.435h21.272a1.718,1.718,0,1,1,0,3.435Z" transform="translate(-253.575 -154.834)" fill="#dcf9f7"/>
    <path id="Path_248" data-name="Path 248" d="M290.422,185.242H255.293a1.718,1.718,0,1,1,0-3.435h35.129a1.718,1.718,0,0,1,0,3.435Z" transform="translate(-253.575 -175.63)" fill="#dcf9f7"/>
    <path id="Path_249" data-name="Path 249" d="M384.879,158.269h-7.071a1.718,1.718,0,1,1,0-3.435h7.071a1.718,1.718,0,1,1,0,3.435Z" transform="translate(-348.033 -154.834)" fill="#dcf9f7"/>
  </g>
  <path id="Path_250" data-name="Path 250" d="M253.154,330.768h-6.14a1.718,1.718,0,1,1,0-3.435h6.14a1.718,1.718,0,1,1,0,3.435Z" transform="translate(-189.12 -254.74)" fill="#2e3092"/>
  <g id="Group_42" data-name="Group 42" transform="translate(27.188 81.33)">
    <path id="Path_251" data-name="Path 251" d="M202.211,368.918H180.94a1.718,1.718,0,0,1,0-3.435h21.272a1.718,1.718,0,0,1,0,3.435Z" transform="translate(-165.365 -365.483)" fill="#b0d1cf"/>
    <path id="Path_252" data-name="Path 252" d="M155.562,395.892H120.433a1.718,1.718,0,1,1,0-3.435h35.129a1.718,1.718,0,1,1,0,3.435Z" transform="translate(-118.715 -386.28)" fill="#b0d1cf"/>
    <path id="Path_253" data-name="Path 253" d="M127.5,368.918h-7.071a1.718,1.718,0,0,1,0-3.435H127.5a1.718,1.718,0,0,1,0,3.435Z" transform="translate(-118.715 -365.483)" fill="#b0d1cf"/>
  </g>
</svg>
