<svg xmlns="http://www.w3.org/2000/svg" width="50.079" height="50.079" viewBox="0 0 50.079 50.079"><path d="M7.336,50.079H23.67v-17.8H17.8V26.409H23.67V19.073a7.344,7.344,0,0,1,7.336-7.336h7.336v5.869H32.473a2.938,2.938,0,0,0-2.934,2.934v5.869h8.538L37.1,32.277h-7.56v17.8h13.2a7.344,7.344,0,0,0,7.336-7.336V7.336A7.344,7.344,0,0,0,42.743,0H7.336A7.344,7.344,0,0,0,0,7.336V42.743A7.344,7.344,0,0,0,7.336,50.079ZM2.934,7.336a4.407,4.407,0,0,1,4.4-4.4H42.743a4.407,4.407,0,0,1,4.4,4.4V42.743a4.407,4.407,0,0,1-4.4,4.4H32.473V35.212h7.112l1.956-11.737H32.473V20.54h8.8V8.8H31.006a10.282,10.282,0,0,0-10.27,10.27v4.4H14.867V35.212h5.869V47.144H7.336a4.407,4.407,0,0,1-4.4-4.4Zm0,0" fill="#f3f3f3"/></svg>