<svg id="_009-income" data-name="009-income" xmlns="http://www.w3.org/2000/svg" width="99.783" height="85.74" viewBox="0 0 99.783 85.74">
  <path id="Path_218" data-name="Path 218" d="M99.783,40.013v79.935a1.82,1.82,0,0,1-1.82,1.82H1.82A1.82,1.82,0,0,1,0,119.948V40.011a3.982,3.982,0,0,1,3.982-3.982H95.8A3.984,3.984,0,0,1,99.783,40.013Z" transform="translate(0 -36.029)" fill="#dcf9f7"/>
  <path id="Path_219" data-name="Path 219" d="M99.783,40.013V54.254H0V40.013a3.984,3.984,0,0,1,3.982-3.985H95.8A3.984,3.984,0,0,1,99.783,40.013Z" transform="translate(0 -36.028)" fill="#b0d1cf"/>
  <path id="Path_220" data-name="Path 220" d="M99.785,51.072H0V40.015a3.983,3.983,0,0,1,3.983-3.983H95.8a3.983,3.983,0,0,1,3.983,3.983Z" transform="translate(-0.002 -36.031)" fill="#65c98f"/>
  <path id="Path_221" data-name="Path 221" d="M116.166,71.329H62.454a1.506,1.506,0,0,1,0-3.011h53.712a1.506,1.506,0,0,1,0,3.011Z" transform="translate(-49.07 -62.025)" fill="#dcf9f7"/>
  <path id="Path_222" data-name="Path 222" d="M375.424,69.494a1.506,1.506,0,0,1-1.506-1.506v-.262a1.506,1.506,0,1,1,3.011,0v.262A1.506,1.506,0,0,1,375.424,69.494Z" transform="translate(-301.046 -60.337)" fill="#72f2eb"/>
  <path id="Path_223" data-name="Path 223" d="M406.265,69.494a1.506,1.506,0,0,1-1.506-1.506v-.262a1.506,1.506,0,1,1,3.011,0v.262A1.505,1.505,0,0,1,406.265,69.494Z" transform="translate(-325.876 -60.337)" fill="#ff6a66"/>
  <path id="Path_224" data-name="Path 224" d="M437.106,69.494a1.506,1.506,0,0,1-1.506-1.506v-.262a1.506,1.506,0,1,1,3.011,0v.262A1.505,1.505,0,0,1,437.106,69.494Z" transform="translate(-350.707 -60.337)" fill="#f9b767"/>
  <g id="Group_36" data-name="Group 36" transform="translate(11.707 55.084)">
    <path id="Path_225" data-name="Path 225" d="M98.617,361.505A1.506,1.506,0,0,1,97.111,360v-.254a1.506,1.506,0,1,1,3.011,0V360A1.506,1.506,0,0,1,98.617,361.505Z" transform="translate(-89.892 -350.529)" fill="#65c98f"/>
    <path id="Path_226" data-name="Path 226" d="M128.57,361.505A1.506,1.506,0,0,1,127.064,360v-.254a1.506,1.506,0,1,1,3.011,0V360A1.506,1.506,0,0,1,128.57,361.505Z" transform="translate(-114.008 -350.529)" fill="#65c98f"/>
    <path id="Path_227" data-name="Path 227" d="M158.523,361.505A1.506,1.506,0,0,1,157.017,360v-.254a1.506,1.506,0,1,1,3.011,0V360A1.505,1.505,0,0,1,158.523,361.505Z" transform="translate(-138.123 -350.529)" fill="#65c98f"/>
    <path id="Path_228" data-name="Path 228" d="M64.7,336.944H61.576a1.506,1.506,0,0,1-1.506-1.506V320.18a1.506,1.506,0,0,1,1.506-1.506H64.7a1.506,1.506,0,0,1,0,3.011H63.081v12.247H64.7a1.506,1.506,0,0,1,0,3.012Z" transform="translate(-60.07 -318.674)" fill="#65c98f"/>
    <path id="Path_229" data-name="Path 229" d="M182.668,336.946h-3.122a1.506,1.506,0,0,1,0-3.011h1.616V321.687h-1.616a1.506,1.506,0,0,1,0-3.011h3.122a1.506,1.506,0,0,1,1.506,1.506V335.44A1.506,1.506,0,0,1,182.668,336.946Z" transform="translate(-155.049 -318.676)" fill="#65c98f"/>
  </g>
  <g id="Group_37" data-name="Group 37" transform="translate(11.437 32.608)">
    <path id="Path_230" data-name="Path 230" d="M64.571,215.115a1.5,1.5,0,0,1-1.065-.441L59.129,210.3a1.506,1.506,0,0,1,0-2.13l4.378-4.378a1.506,1.506,0,0,1,2.13,2.13l-3.313,3.313,3.313,3.313a1.506,1.506,0,0,1-1.065,2.571Z" transform="translate(-58.688 -203.347)" fill="#2e3092"/>
    <path id="Path_231" data-name="Path 231" d="M174.481,215.115a1.506,1.506,0,0,1-1.065-2.571l3.313-3.313-3.313-3.313a1.506,1.506,0,1,1,2.13-2.13l4.378,4.378a1.506,1.506,0,0,1,0,2.13l-4.378,4.378A1.5,1.5,0,0,1,174.481,215.115Z" transform="translate(-150.702 -203.347)" fill="#2e3092"/>
    <path id="Path_232" data-name="Path 232" d="M117.946,217.517a1.506,1.506,0,0,1-1.327-2.215l4.366-8.174a1.506,1.506,0,0,1,2.657,1.419l-4.366,8.174A1.506,1.506,0,0,1,117.946,217.517Z" transform="translate(-105.186 -205.749)" fill="#2e3092"/>
  </g>
  <g id="Group_38" data-name="Group 38" transform="translate(46.699 45.042)">
    <path id="Path_233" data-name="Path 233" d="M245.409,270.158h-4.283a1.506,1.506,0,1,1,0-3.011h4.283a1.506,1.506,0,1,1,0,3.011Z" transform="translate(-239.62 -267.147)" fill="#b0d1cf"/>
    <path id="Path_234" data-name="Path 234" d="M245.409,295.72h-4.283a1.506,1.506,0,1,1,0-3.011h4.283a1.506,1.506,0,1,1,0,3.011Z" transform="translate(-239.62 -287.727)" fill="#b0d1cf"/>
  </g>
  <circle id="Ellipse_15" data-name="Ellipse 15" cx="13.763" cy="13.763" r="13.763" transform="translate(61.598 35.275)" fill="#f9b767"/>
  <path id="Path_235" data-name="Path 235" d="M373.05,249.878A4.24,4.24,0,0,0,369,245.647q-.054,0-.109,0a1.224,1.224,0,1,1,.949-2,1.506,1.506,0,1,0,2.334-1.9,4.227,4.227,0,0,0-1.778-1.284V238.85a1.506,1.506,0,1,0-3.011,0v1.616a4.232,4.232,0,0,0,1.324,8.185c.036,0,.072,0,.109,0a1.224,1.224,0,1,1-.95,2,1.506,1.506,0,1,0-2.334,1.9,4.226,4.226,0,0,0,1.851,1.311v1.583a1.506,1.506,0,0,0,3.011,0v-1.643A4.239,4.239,0,0,0,373.05,249.878Z" transform="translate(-293.586 -198.11)" fill="#e58013"/>
  <path id="Path_236" data-name="Path 236" d="M371.069,391.406H365.38a1.506,1.506,0,0,1,0-3.011h5.689a1.506,1.506,0,1,1,0,3.011Z" transform="translate(-292.959 -319.723)" fill="#f9b767"/>
</svg>
