<svg xmlns="http://www.w3.org/2000/svg" width="26.38" height="32.959" viewBox="0 0 26.38 32.959"><g transform="translate(-48.8)"><path d="M75.174,28.49,73.286,7.239a.908.908,0,0,0-.9-.829H68.5a6.512,6.512,0,0,0-13.022,0H51.6a.9.9,0,0,0-.9.829L48.807,28.49c0,.027-.007.054-.007.081a4.7,4.7,0,0,0,4.947,4.388H70.233a4.7,4.7,0,0,0,4.947-4.388A.328.328,0,0,0,75.174,28.49ZM61.99,1.82a4.7,4.7,0,0,1,4.691,4.59H57.3A4.7,4.7,0,0,1,61.99,1.82Zm8.243,29.319H53.747a2.9,2.9,0,0,1-3.127-2.528L52.426,8.236h3.046V11a.91.91,0,0,0,1.82,0V8.236h9.389V11a.91.91,0,1,0,1.82,0V8.236h3.046l1.813,20.375A2.908,2.908,0,0,1,70.233,31.139Z" transform="translate(0)"/></g></svg>