<svg xmlns="http://www.w3.org/2000/svg" width="50.079" height="40.987" viewBox="0 0 50.079 40.987"><path d="M50.079,5.474c-3.15.145-3.081.133-3.438.163L48.507.309s-5.824,2.142-7.3,2.525A11.684,11.684,0,0,0,27.446,1.728a9.53,9.53,0,0,0-4.581,9.8A25.42,25.42,0,0,1,6.4,2.257L5.016.6l-1.032,1.9a11.456,11.456,0,0,0-1.22,7.712,11.08,11.08,0,0,0,1.074,3.011l-1.185-.459-.141,1.98A10.566,10.566,0,0,0,4.3,21.018a11.169,11.169,0,0,0,1.4,1.721l-.612-.094.747,2.269a11.031,11.031,0,0,0,5.67,6.57c-2.644,1.122-4.78,1.838-8.292,2.993L0,35.534l2.967,1.622a31.145,31.145,0,0,0,9.079,3.3c8.78,1.377,18.665.256,25.32-5.738,5.605-5.048,7.445-12.229,7.063-19.7a4.669,4.669,0,0,1,.873-3.04c1.243-1.659,4.77-6.5,4.777-6.506Zm-7.124,4.749A7.6,7.6,0,0,0,41.5,15.17c.386,7.538-1.665,13.383-6.1,17.374-5.176,4.662-13.525,6.491-22.9,5.02a22.714,22.714,0,0,1-4.907-1.458,77.814,77.814,0,0,0,8.889-3.653l5.125-2.426-5.659-.362a8,8,0,0,1-6.355-3.62,10.149,10.149,0,0,0,2.154-.359l5.4-1.5L11.7,22.85a8.105,8.105,0,0,1-4.951-3.443,8.3,8.3,0,0,1-1.073-2.367,13.585,13.585,0,0,0,2.208.352l5.037.5L8.933,14.776A8.4,8.4,0,0,1,5.75,5.925c8.974,9.308,19.511,8.608,20.572,8.854a17.372,17.372,0,0,0-.3-2.489,6.737,6.737,0,0,1,2.961-8.065,8.764,8.764,0,0,1,10.339.856,2.626,2.626,0,0,0,2.409.645,20.279,20.279,0,0,0,1.985-.6L42.45,8.737h1.615c-.3.409-.671.9-1.11,1.485Zm0,0" transform="translate(0 0)" fill="#f3f3f3"/></svg>