<svg id="_017-home-page" data-name="017-home-page" xmlns="http://www.w3.org/2000/svg" width="102.687" height="88.235" viewBox="0 0 102.687 88.235">
  <path id="Path_254" data-name="Path 254" d="M102.687,40.129V122.39a1.873,1.873,0,0,1-1.873,1.873H1.873A1.873,1.873,0,0,1,0,122.39V40.127a4.1,4.1,0,0,1,4.1-4.1h94.49A4.1,4.1,0,0,1,102.687,40.129Z" transform="translate(0 -36.029)" fill="#dcf9f7"/>
  <path id="Path_255" data-name="Path 255" d="M102.687,40.129V54.784H0V40.129a4.1,4.1,0,0,1,4.1-4.1h94.49A4.1,4.1,0,0,1,102.687,40.129Z" transform="translate(0 -36.028)" fill="#b0d1cf"/>
  <path id="Path_256" data-name="Path 256" d="M102.688,51.509H0V40.131a4.1,4.1,0,0,1,4.1-4.1H98.59a4.1,4.1,0,0,1,4.1,4.1Z" transform="translate(-0.002 -36.031)" fill="#65c98f"/>
  <path id="Path_257" data-name="Path 257" d="M117.772,71.417H62.5a1.55,1.55,0,1,1,0-3.1h55.276a1.55,1.55,0,1,1,0,3.1Z" transform="translate(-48.723 -61.842)" fill="#dcf9f7"/>
  <path id="Path_258" data-name="Path 258" d="M375.468,69.589a1.549,1.549,0,0,1-1.55-1.55v-.269a1.55,1.55,0,1,1,3.1,0v.269A1.55,1.55,0,0,1,375.468,69.589Z" transform="translate(-298.925 -60.165)" fill="#65c98f"/>
  <path id="Path_259" data-name="Path 259" d="M406.309,69.589a1.549,1.549,0,0,1-1.55-1.55v-.269a1.55,1.55,0,1,1,3.1,0v.269A1.549,1.549,0,0,1,406.309,69.589Z" transform="translate(-323.581 -60.165)" fill="#f96982"/>
  <path id="Path_260" data-name="Path 260" d="M437.15,69.589a1.549,1.549,0,0,1-1.55-1.55v-.269a1.55,1.55,0,0,1,3.1,0v.269A1.55,1.55,0,0,1,437.15,69.589Z" transform="translate(-348.237 -60.165)" fill="#f9b767"/>
  <g id="Group_43" data-name="Group 43" transform="translate(21.63 33.669)">
    <path id="Path_261" data-name="Path 261" d="M109.4,363.067a1.549,1.549,0,0,1-1.55-1.55v-.269a1.55,1.55,0,1,1,3.1,0v.269A1.549,1.549,0,0,1,109.4,363.067Z" transform="translate(-107.848 -328.453)" fill="#65c98f"/>
    <path id="Path_262" data-name="Path 262" d="M140.239,363.067a1.549,1.549,0,0,1-1.55-1.55v-.269a1.55,1.55,0,1,1,3.1,0v.269A1.549,1.549,0,0,1,140.239,363.067Z" transform="translate(-132.504 -328.453)" fill="#65c98f"/>
    <path id="Path_263" data-name="Path 263" d="M213.37,207h-27.4a1.55,1.55,0,1,1,0-3.1h27.4a1.55,1.55,0,1,1,0,3.1Z" transform="translate(-169.064 -203.903)" fill="#65c98f"/>
    <path id="Path_264" data-name="Path 264" d="M236.1,240.906H223.92a1.55,1.55,0,1,1,0-3.1H236.1a1.55,1.55,0,0,1,0,3.1Z" transform="translate(-199.401 -231.007)" fill="#65c98f"/>
    <path id="Path_265" data-name="Path 265" d="M371.873,363.47h-4.331a1.55,1.55,0,1,1,0-3.1h4.331a1.55,1.55,0,1,1,0,3.1Z" transform="translate(-314.219 -328.99)" fill="#65c98f"/>
  </g>
  <path id="Path_266" data-name="Path 266" d="M157.5,299.369H100.216A4.373,4.373,0,0,1,95.843,295h0a4.373,4.373,0,0,1,4.373-4.373H157.5A4.373,4.373,0,0,1,161.872,295h0A4.373,4.373,0,0,1,157.5,299.369Z" transform="translate(-76.621 -239.561)" fill="#72f2eb"/>
</svg>
