<svg xmlns="http://www.w3.org/2000/svg" width="50.079" height="50.079" viewBox="0 0 50.079 50.079"><path d="M12.112,46.506a24.856,24.856,0,0,0,12.839,3.556A25.168,25.168,0,0,0,50.079,25.031,25.031,25.031,0,1,0,3.574,37.967L0,50.079ZM2.952,25.031A21.992,21.992,0,1,1,13.118,43.678l-.564-.36L4.339,45.741l2.423-8.215-.36-.564a22.094,22.094,0,0,1-3.45-11.932Zm0,0" transform="translate(0 -0.001)" fill="#f3f3f3"/><path d="M121.47,104.02A22.113,22.113,0,0,0,139.2,121.755c2.914.555,7.189.638,9.279-1.451l1.165-1.165a3.114,3.114,0,0,0,0-4.4l-4.659-4.659a3.114,3.114,0,0,0-4.4,0l-1.165,1.165a2.072,2.072,0,0,1-2.771.009L132,106.409l-.021-.021a1.83,1.83,0,0,1,0-2.585l1.165-1.165a3.112,3.112,0,0,0,0-4.4l-4.659-4.659a3.117,3.117,0,0,0-4.4,0l-1.165,1.165h0c-1.668,1.668-2.224,5.224-1.451,9.28ZM125,96.815c1.223-1.195,1.157-1.218,1.292-1.218a.18.18,0,0,1,.128.053c4.909,4.935,4.712,4.645,4.712,4.787a.176.176,0,0,1-.053.128l-1.165,1.165a4.758,4.758,0,0,0-.012,6.721l4.649,4.845.021.021a5,5,0,0,0,6.928,0l1.165-1.165a.181.181,0,0,1,.255,0c4.909,4.935,4.712,4.645,4.712,4.786a.176.176,0,0,1-.053.128l-1.165,1.165c-.8.8-3.34,1.276-6.656.644a19.18,19.18,0,0,1-15.4-15.4c-.632-3.316-.154-5.859.644-6.656Zm0,0" transform="translate(-109.28 -83.602)" fill="#f3f3f3"/></svg>